<?xml version="1.0" standalone="no"?>
<!DOCTYPE svg PUBLIC "-//W3C//DTD SVG 20010904//EN"
 "http://www.w3.org/TR/2001/REC-SVG-20010904/DTD/svg10.dtd">
<svg version="1.0" xmlns="http://www.w3.org/2000/svg"
 width="512.000000pt" height="512.000000pt" viewBox="0 0 512.000000 512.000000"
 preserveAspectRatio="xMidYMid meet">
<metadata>
Created by potrace 1.14, written by Peter Selinger 2001-2017
</metadata>
<g transform="translate(0.000000,512.000000) scale(0.100000,-0.100000)"
fill="#000000" stroke="none">
<path d="M1740 4959 c-113 -22 -263 -135 -319 -239 -32 -60 -61 -156 -61 -202
l0 -36 59 -4 c70 -4 116 3 112 17 -6 22 11 89 34 135 44 87 168 170 255 170
l30 0 0 85 0 85 -32 -1 c-18 -1 -53 -5 -78 -10z"/>
<path d="M3519 4955 c-3 -2 -20 -6 -39 -8 -19 -2 -48 -9 -65 -16 -132 -51
-208 -120 -295 -270 l-65 -111 -130 -1 c-71 0 -148 -2 -170 -4 -104 -7 -252
-60 -348 -123 -47 -31 -167 -147 -167 -161 0 -5 -4 -11 -9 -13 -4 -1 -38 -53
-75 -115 -60 -99 -70 -112 -94 -111 -48 2 -71 -12 -99 -60 -16 -26 -33 -56
-40 -67 -7 -11 -16 -27 -20 -35 -4 -8 -27 -49 -51 -90 -92 -154 -132 -231
-132 -250 0 -8 9 -30 20 -47 l20 -33 -175 -350 c-95 -192 -172 -350 -170 -350
2 0 -9 -26 -25 -58 -34 -71 -107 -242 -112 -262 -2 -8 -5 -17 -8 -20 -3 -3
-12 -25 -22 -50 -9 -25 -35 -94 -58 -155 -24 -60 -43 -114 -44 -120 -1 -5 -8
-21 -16 -35 -7 -14 -13 -27 -12 -30 1 -3 -23 -79 -52 -170 -46 -140 -61 -187
-82 -265 -94 -342 -132 -490 -139 -540 -8 -58 3 -71 108 -133 183 -107 339
-197 522 -302 99 -56 227 -131 285 -165 58 -34 112 -64 120 -68 8 -4 31 -17
50 -28 138 -84 133 -85 286 63 191 186 382 382 492 507 32 35 62 69 67 75 6 6
37 43 70 81 32 39 61 72 64 75 13 10 192 240 296 379 86 114 337 484 509 749
17 27 25 31 46 26 75 -20 94 -8 157 99 26 45 50 86 52 90 2 5 39 70 82 145 88
152 94 178 51 221 l-27 28 30 55 c16 31 35 62 41 69 20 27 84 177 95 226 18
80 19 86 20 153 2 75 -6 152 -21 213 -13 47 -91 220 -102 225 -5 2 -8 8 -8 13
0 5 -15 32 -33 61 -55 86 -55 81 16 195 139 226 116 489 -59 659 -52 51 -314
209 -314 189 0 -2 -12 0 -27 6 -28 11 -186 22 -194 14z m196 -195 c86 -39 184
-99 223 -138 48 -47 89 -131 98 -199 7 -57 -9 -139 -36 -188 -77 -136 -83
-145 -94 -137 -6 5 -36 23 -66 39 -30 16 -92 52 -138 79 -46 27 -100 58 -120
70 -116 65 -140 79 -172 99 -19 12 -66 39 -105 59 -38 21 -74 42 -79 46 -15
14 126 230 150 230 4 0 16 7 26 17 61 55 217 67 313 23z m-613 -394 c18 -9 40
-20 48 -26 30 -19 150 -90 154 -90 2 0 77 -43 165 -95 89 -52 164 -95 166 -95
3 0 35 -19 72 -42 38 -22 88 -52 113 -66 74 -41 79 -46 90 -72 5 -14 21 -43
34 -65 99 -158 134 -243 142 -335 3 -30 6 -59 8 -65 3 -9 -9 -112 -17 -145
-15 -63 -48 -136 -93 -207 -19 -30 -34 -57 -34 -61 0 -4 -7 -15 -15 -26 -13
-17 -16 -17 -72 17 -32 19 -74 44 -93 54 -19 11 -111 64 -205 118 -161 92
-230 132 -447 259 -51 30 -113 65 -138 79 -25 14 -85 48 -135 77 -186 108
-412 238 -470 270 -75 42 -135 79 -135 85 0 8 64 121 99 175 79 121 204 214
335 251 85 23 380 27 428 5z m-977 -564 c17 -10 50 -30 75 -44 25 -14 133 -76
240 -138 107 -62 227 -131 265 -153 39 -22 118 -68 178 -103 59 -35 109 -64
112 -64 2 0 45 -25 95 -55 50 -30 95 -55 100 -55 6 0 10 -4 10 -10 0 -5 5 -10
11 -10 6 0 79 -40 162 -88 84 -49 206 -120 272 -158 66 -38 127 -73 136 -79
10 -5 37 -20 61 -33 23 -13 53 -31 65 -40 l23 -17 -75 -130 c-41 -71 -79 -131
-85 -133 -6 -2 -43 15 -83 38 -39 24 -92 54 -117 68 -25 14 -142 81 -260 150
-118 68 -235 136 -260 150 -25 13 -70 39 -100 57 -69 41 -429 249 -490 283
-25 14 -82 47 -128 73 -45 27 -113 65 -150 85 -37 20 -74 42 -82 49 -8 7 -42
27 -75 45 -33 18 -70 38 -82 45 l-22 12 27 50 c66 122 128 223 137 223 6 0 24
-8 40 -18z m10 -572 c6 -4 30 -19 55 -32 25 -14 101 -58 170 -98 69 -40 145
-84 170 -98 25 -13 97 -55 160 -92 63 -36 196 -113 295 -170 99 -57 228 -132
288 -167 59 -35 109 -63 111 -63 6 0 189 -109 198 -118 4 -4 -16 -43 -46 -87
-29 -44 -82 -125 -117 -180 -35 -55 -66 -102 -69 -105 -3 -3 -37 -52 -75 -110
-38 -58 -81 -121 -95 -140 -15 -19 -64 -87 -111 -150 -46 -63 -86 -117 -89
-120 -3 -3 -27 -34 -55 -70 -27 -36 -52 -67 -55 -70 -3 -3 -30 -36 -61 -75
-31 -38 -65 -79 -76 -90 -10 -11 -29 -33 -41 -50 -76 -97 -335 -370 -574 -602
l-76 -75 -139 79 c-348 200 -695 401 -768 445 -44 27 -88 51 -98 54 -11 4 -16
13 -12 24 3 10 8 27 10 38 7 36 84 325 115 432 17 58 33 113 35 122 10 45 131
393 188 543 115 299 219 525 475 1032 l62 122 107 -61 c60 -33 113 -64 118
-68z"/>
<path d="M1850 2935 c-72 -151 -136 -287 -163 -345 -13 -30 -34 -75 -45 -100
-51 -111 -202 -507 -202 -531 0 -4 34 -18 74 -32 56 -19 77 -22 84 -14 5 7 29
68 52 137 50 144 151 392 217 530 25 52 74 155 109 228 35 74 64 137 64 141 0
3 -33 22 -73 42 l-73 35 -44 -91z"/>
<path d="M1382 1787 c-7 -10 -72 -250 -72 -268 0 -11 151 -42 160 -33 5 5 12
24 15 43 3 19 8 38 11 43 3 4 7 17 9 28 2 11 11 48 20 82 15 59 15 64 -2 75
-9 7 -24 13 -34 13 -9 0 -35 6 -57 14 -31 11 -43 12 -50 3z"/>
<path d="M2095 4722 c-150 -26 -292 -135 -359 -275 -34 -69 -60 -186 -47 -205
3 -4 39 -8 79 -9 61 -1 74 2 83 18 5 11 8 19 5 19 -3 0 2 23 11 52 32 110 127
204 223 223 8 2 15 4 15 6 0 1 14 3 30 4 17 2 33 3 38 4 4 1 7 39 7 86 l0 86
-32 -3 c-18 -1 -42 -4 -53 -6z"/>
<path d="M3154 885 c-2 -5 -5 -21 -6 -35 -2 -14 -7 -31 -11 -37 -5 -7 -6 -13
-2 -13 12 0 -46 -98 -80 -133 -42 -44 -122 -84 -178 -90 -22 -2 -42 -9 -46
-15 -5 -9 -7 -103 -2 -149 2 -18 99 -7 162 17 63 25 143 77 187 121 75 74 149
242 140 317 -3 27 -4 27 -82 27 -45 0 -80 -4 -82 -10z"/>
<path d="M3479 643 c-1 -5 -3 -17 -4 -28 -18 -149 -145 -274 -290 -287 l-30
-3 -3 -84 -3 -84 68 7 c86 9 210 67 272 128 86 84 145 202 155 309 l5 49 -85
0 c-46 0 -85 -3 -85 -7z"/>
</g>
</svg>
